<svg viewBox="0 0 100 100" xmlns="http://www.w3.org/2000/svg" xmlns:xlink="http://www.w3.org/1999/xlink" xmlns:bx="https://boxy-svg.com">
  <defs>
    <linearGradient gradientUnits="userSpaceOnUse" x1="50" y1="0" x2="50" y2="100" id="gradient-0">
      <stop offset="0" style="stop-color: rgb(47, 53, 55);"></stop>
      <stop offset="1" style="stop-color: rgb(10, 17, 20);"></stop>
    </linearGradient>
    <linearGradient id="gradient-7" bx:pinned="true">
      <stop offset="0" style="stop-color: rgb(11, 17, 20);"></stop>
      <stop offset="1" style="stop-color: rgb(47, 53, 55);"></stop>
    </linearGradient>
    <linearGradient id="gradient-1" bx:pinned="true">
      <stop offset="0" style="stop-color: rgb(224, 29, 0);"></stop>
      <stop offset="0.139" style="stop-color: rgb(236, 164, 40);"></stop>
      <stop offset="0.288" style="stop-color: rgb(106, 210, 4);"></stop>
      <stop offset="0.434" style="stop-color: rgb(2, 147, 247);"></stop>
      <stop offset="0.592" style="stop-color: rgb(250, 107, 20);"></stop>
      <stop offset="0.733" style="stop-color: rgb(239, 186, 255);"></stop>
      <stop offset="0.884" style="stop-color: rgb(100, 54, 254);"></stop>
      <stop offset="1" style="stop-color: rgb(178, 33, 226);"></stop>
    </linearGradient>
    <radialGradient id="gradient-1-0" gradientUnits="userSpaceOnUse" cx="20.285" cy="29.903" r="25" gradientTransform="matrix(2.924115, 1.750164, -1.196306, 1.998749, -10.176547, -72.004167)" xlink:href="#gradient-1"></radialGradient>
    <radialGradient id="gradient-1-1" gradientUnits="userSpaceOnUse" cx="21.986" cy="23.751" r="5.556" gradientTransform="matrix(13.251242, 7.908028, -5.137708, 8.609103, -153.92387, -358.615041)" xlink:href="#gradient-1"></radialGradient>
  </defs>
  <rect style="fill: url(#gradient-0);" x="0" y="0" width="100" height="100" rx="20" ry="20"></rect>
  <g>
    <path d="M 52.777 63.889 L 38.889 72.222 L 38.889 63.889 L 33.333 63.889 C 28.731 63.889 25 60.156 25 55.556 L 25 33.333 C 25 28.731 28.731 25 33.333 25 L 66.667 25 C 71.267 25 75 28.731 75 33.333 L 75 48.612" style="stroke-linecap: round; stroke-linejoin: round; stroke-width: 5px; fill: none; stroke: rgb(255, 255, 255);"></path>
    <path d="M 69.444 58.333 L 63.889 66.667 L 75 66.667 L 69.444 75" style="stroke-linecap: round; stroke-linejoin: round; stroke-width: 5px; fill: none; stroke: rgb(255, 255, 255);"></path>
  </g>
  <g transform="matrix(1, 0, 0, 1, 0.000001, 0)">
    <path d="M 52.777 63.889 L 38.889 72.222 L 38.889 63.889 L 33.333 63.889 C 28.731 63.889 25 60.156 25 55.556 L 25 33.333 C 25 28.731 28.731 25 33.333 25 L 66.667 25 C 71.267 25 75 28.731 75 33.333 L 75 48.612" style="fill: none; stroke-linecap: round; stroke-linejoin: round; stroke-width: 5px; stroke: url(#gradient-1-0); stroke-opacity: 0.3;"></path>
    <path d="M 69.444 58.333 L 63.889 66.667 L 75 66.667 L 69.444 75" style="fill: none; stroke-linecap: round; stroke-linejoin: round; stroke-width: 5px; stroke: url(#gradient-1-1); stroke-opacity: 0.3;"></path>
  </g>
</svg>